
<svg xmlns="http://www.w3.org/2000/svg" xml:space="preserve" shape-rendering="geometricPrecision" text-rendering="geometricPrecision" image-rendering="optimizeQuality" fill-rule="evenodd" clip-rule="evenodd"
viewBox="0 0 1.06431 0.785848"
 xmlns:xlink="http://www.w3.org/1999/xlink">
 <g id="Layer_x0020_1">
  <metadata id="CorelCorpID_0Corel-Layer"/>
  <path fill="white" d="M0.0231968 0.171085l0.353046 -0.161255c0.0177066,-0.0080876 0.039405,0.00108358 0.0482188,0.0203799l0.234879 0.51424c0.00881325,0.0192963 0.00153757,0.0417013 -0.0161695,0.0497889l-0.353046 0.161255c-0.0177066,0.0080876 -0.039405,-0.00108306 -0.0482188,-0.0203794l-0.234879 -0.514241c-0.00881325,-0.0192963 -0.00153757,-0.0417008 0.0161695,-0.0497884z"/>
  <path fill="#1F1A17" fill-rule="nonzero" d="M0.0218317 0.168094l0.353036 -0.161249 -2.06593e-006 -4.64834e-006 6.71427e-006 -3.09889e-006c6.55933e-005,-2.9956e-005 0.000132736,-5.68131e-005 0.000198846,-8.26372e-005 0.00967888,-0.00435291 0.0203969,-0.00404406 0.0298919,-3.09889e-005 0.00946557,0.00400119 0.0177231,0.0116952 0.0224835,0.0221127l7.74723e-006 1.70439e-005 1.6011e-005 3.56373e-005 2.06593e-006 -1.03296e-006 3.61538e-006 8.26372e-006 2.9956e-005 7.02416e-005 0.234823 0.514117 1.80769e-005 3.97691e-005 5.68131e-006 1.29121e-005 2.06593e-006 -1.03296e-006 3.61538e-006 8.26372e-006 3.77032e-005 8.98679e-005c0.00470051,0.0103875 0.0050951,0.0216065 0.00193681,0.0313308 -0.00320322,0.00986481 -0.0100575,0.0182117 -0.0197854,0.0226591l-7.90218e-005 3.56373e-005 -0.352967 0.161218 2.06593e-006 4.64834e-006 -6.71427e-006 3.09889e-006c-6.61097e-005,3.04725e-005 -0.000131703,5.93955e-005 -0.000198329,8.52196e-005 -0.00267589,0.00120289 -0.00542978,0.00204889 -0.0082131,0.00255865 -0.00285202,0.00052268 -0.00572831,0.000695185 -0.00857619,0.000539724l-1.29121e-005 -5.16482e-007 0 5.16482e-007c-0.014571,-0.000798998 -0.0287107,-0.010154 -0.0355779,-0.0251863l-0.234879 -0.514244 -3.61538e-006 -8.26372e-006 -1.96263e-005 -4.44175e-005 -2.58241e-006 1.03296e-006 -3.61538e-006 -8.26372e-006 -3.30549e-005 -8.00548e-005c-0.00129844,-0.00286958 -0.00227097,-0.00580888 -0.00292845,-0.00876367 -0.000667295,-0.0029956 -0.00101127,-0.00600979 -0.00104794,-0.00898731 -0.000191098,-0.0154206 0.00785725,-0.0298682 0.0218317,-0.036254l0 5.16482e-007zm0.355778 -0.155277l-0.353046 0.161254c-0.0115196,0.00526399 -0.0181528,0.0173022 -0.0179932,0.0301998 3.09889e-005,0.00252973 0.000324351,0.00509458 0.000892998,0.00764755 0.000558834,0.00251062 0.00138882,0.00501659 0.00250029,0.00747195 2.68571e-005,5.26812e-005 5.11317e-005,0.000106395 7.48899e-005,0.000161142l3.61538e-006 8.26372e-006 -2.06593e-006 1.03296e-006 0.234855 0.514191c0.00582385,0.0127483 0.0177288,0.0206774 0.0299617,0.0213478l0 5.16482e-007c0.00236032,0.000128088 0.00472323,-1.13626e-005 0.00704379,-0.000436944 0.00227665,-0.000417318 0.00452387,-0.00110734 0.00669981,-0.00208452 4.59669e-005,-2.37582e-005 9.19338e-005,-4.80329e-005 0.00013945,-6.97251e-005l6.71427e-006 -3.09889e-006 2.06593e-006 5.16482e-006 4.13186e-006 -2.06593e-006 6.71427e-006 -3.09889e-006 0.353047 -0.161255 0 5.16482e-007 9.29668e-006 -4.64834e-006c0.00796726,-0.00364275 0.0136005,-0.0105393 0.0162558,-0.0187173 0.00267796,-0.00824512 0.00233295,-0.0177742 -0.00167392,-0.0266118 -2.37582e-005,-4.75164e-005 -4.69999e-005,-9.70987e-005 -6.81757e-005,-0.000146164l-3.61538e-006 -8.26372e-006 2.06593e-006 -1.03296e-006 -0.234803 -0.514077c-2.63406e-005,-5.26812e-005 -5.26812e-005,-0.000107428 -7.64394e-005,-0.000162175l-3.61538e-006 -8.26372e-006 1.54945e-006 -5.16482e-007c-0.00405645,-0.00884166 -0.0110424,-0.0153597 -0.0190329,-0.0187375 -0.00786603,-0.0033246 -0.0167036,-0.00359988 -0.0246383,-3.40878e-005 -4.69999e-005,2.47912e-005 -9.60657e-005,4.75164e-005 -0.000145132,7.02416e-005l-6.71427e-006 3.09889e-006 -2.06593e-006 -4.64834e-006 -3.61538e-006 1.03296e-006 -5.16482e-007 5.16482e-007m5.16482e-007 0l-7.23075e-006 3.61538e-006m7.23075e-006 -3.61538e-006l0 0 0 0z"/>
  <path fill="#1F1A17" fill-rule="nonzero" d="M0.0738363 0.223789c-0.00295376,-0.00699214 -0.00484047,-0.0135194 -0.0056591,-0.0195798 -0.000826888,-0.00611877 -0.000571229,-0.0117815 0.00076491,-0.0169861 0.0013537,-0.00527019 0.00356166,-0.00941392 0.00662543,-0.0124322 0.00308547,-0.00304053 0.00701021,-0.0049133 0.0117727,-0.00561726l0 0c0.00100972,-0.000161659 0.00202461,-0.000256175 0.00304673,-0.000286648 0.00103916,-3.04725e-005 0.00205715,4.13186e-006 0.00304983,0.000103813 0.0051829,0.000520614 0.0103575,0.0027575 0.0155229,0.00670962l1.54945e-006 5.16482e-007 3.09889e-006 -2.58241e-006 8.05712e-005 6.04284e-005c2.06593e-005,1.70439e-005 4.23515e-005,3.46043e-005 6.30108e-005,5.21647e-005 0.000968921,0.000748383 0.0019208,0.00154996 0.00285511,0.00240268 0.000945679,0.000864591 0.00187535,0.00178755 0.00279004,0.00276835 0.00463646,0.00496856 0.00874818,0.0113275 0.0123346,0.0190732 0.00264439,0.00571281 0.0045781,0.0111266 0.00580113,0.0162418 0.00123491,0.00516276 0.00175449,0.0100368 0.00156184,0.0146195 -0.00019523,0.00461219 -0.00104898,0.00869705 -0.0025633,0.0122551l-1.03296e-006 2.58241e-006 3.09889e-006 1.54945e-006c-0.00152466,0.00358542 -0.00371557,0.0066182 -0.00657379,0.00909732l-8.7802e-006 7.23075e-006 1.03296e-006 1.54945e-006 -2.06593e-006 1.54945e-006c-2.73736e-005,2.37582e-005 -5.52636e-005,4.4934e-005 -8.31536e-005,6.50768e-005 -0.00109133,0.000930185 -0.00220176,0.00174519 -0.00333079,0.00244658 -0.00117138,0.000726691 -0.00235877,0.00132994 -0.00356321,0.00181079 -0.00624066,0.00248944 -0.0129668,0.00176844 -0.0201805,-0.00216199 -0.00492053,-0.00268054 -0.00941392,-0.00659031 -0.0134766,-0.0117298 -0.00402701,-0.00509148 -0.00763826,-0.0113988 -0.0108332,-0.0189198l-2.06593e-006 -5.16482e-006 0 0zm-0.0469343 -0.0041143l-0.00362622 -0.00793885c-0.000291296,-0.000638372 -1.03296e-005,-0.0013914 0.00062701,-0.0016827l0.00402495 -0.00183816c0.00419022,-0.00191408 0.00646171,-0.0050765 0.00681602,-0.00948623l1.03296e-006 -1.4978e-005 -2.58241e-006 -5.16482e-007c5.73295e-005,-0.000627526 6.76592e-005,-0.00126383 2.84065e-005,-0.0019084 -3.87362e-005,-0.000667295 -0.000128088,-0.0013568 -0.000264439,-0.00206903 -0.000113626,-0.000586207 0.00019678,-0.00115382 0.000716877,-0.00139089l-2.58241e-006 -4.64834e-006 0.00612186 -0.00279624c0.000637339,-0.00029078 0.00138985,-1.03296e-005 0.00168167,0.000628042 1.54945e-005,3.46043e-005 3.04725e-005,7.02416e-005 4.23515e-005,0.000105879l0.0298057 0.0652555 4.64834e-006 -2.06593e-006c0.00112748,0.00246827 0.00197245,0.00398001 0.00253644,0.0045342 0.000147714,0.000146681 0.000321768,0.000236549 0.000518032,0.000268054 0.000273219,4.59669e-005 0.000613581,7.23075e-006 0.0010185,-0.000113626 0.000124472,-3.87362e-005 0.000249977,-5.62966e-005 0.000373933,-5.57801e-005 -5.68131e-006,-2.58241e-006 -2.01428e-005,-5.68131e-006 -2.06593e-006,-1.18791e-005 7.07581e-005,-1.91098e-005 0.000162175,-5.52636e-005 0.000275285,-0.000106912l0.00620502 -0.00283394c0.000637339,-0.000291296 0.00139089,-1.03296e-005 0.00168218,0.00062701l0.00383643 0.00840058c0.000291296,0.000637339 1.03296e-005,0.00139037 -0.00062701,0.00168167l-0.0311919 0.0142472c-0.000638372,0.000291296 -0.0013914,1.08461e-005 -0.0016827,-0.00062701l-0.00383695 -0.00840007c-0.000291296,-0.000637339 -1.03296e-005,-0.00139089 0.000628042,-0.0016827l0.00637133 -0.00290986c0.000132219,-6.04284e-005 0.000232934,-0.000112077 0.000301626,-0.000156494 5.57801e-005,-3.46043e-005 0.000103813,-7.23075e-005 0.000144099,-0.000109494 7.69559e-005,-7.2824e-005 0.000161659,-0.000132736 0.000249461,-0.000183351l-1.03296e-006 -1.54945e-006c0.000789185,-0.000442625 0.00138056,-0.00085891 0.00177515,-0.0012504 0.000277351,-0.000274252 0.000427647,-0.000496339 0.000453471,-0.000664713 3.77032e-005,-0.000256692 -6.04284e-005,-0.000759745 -0.000293362,-0.00150761 -0.000268054,-0.000857361 -0.000719976,-0.00198381 -0.0013568,-0.00337779l-0.00215528 -0.00471858 4.13186e-006 -2.06593e-006 -0.0192627 -0.0419585 -0.0102558 0.00468449c-0.000637339,0.000291296 -0.00139089,1.08461e-005 -0.00168218,-0.000627526zm0.0603835 -0.00226839l2.789e-005 6.09449e-005 -3.61538e-006 1.54945e-006c0.000584141,0.00127984 0.00110476,0.00240113 0.00156081,0.0033623 0.000141516,0.000298527 0.000283032,0.000594471 0.000423515,0.000889899 0.000262373,0.000539724 0.00050512,0.00102883 0.00072824,0.00146836l1.03296e-006 -5.16482e-007 6.71427e-006 1.3945e-005c0.000679174,0.00132891 0.00138262,0.00264646 0.00210931,0.00394954 0.000698801,0.00125557 0.0013976,0.00245381 0.00209589,0.00359523 0.00355495,0.00580784 0.00706083,0.0100812 0.0105161,0.012817l2.27252e-005 1.75604e-005 1.03296e-006 -5.16482e-007c0.000592405,0.000465351 0.00118843,0.000887317 0.001786,0.00126487 0.000590339,0.000371867 0.00116777,0.00069157 0.00173125,0.000958075 0.00283394,0.00133614 0.00555012,0.00145441 0.00815009,0.00035534 0.00180407,-0.000763361 0.00319599,-0.00194042 0.00417421,-0.00353326 0.00100921,-0.00163983 0.00159851,-0.00374346 0.0017705,-0.00630986 1.54945e-006,-2.27252e-005 4.64834e-006,-4.3901e-005 6.19779e-006,-6.71427e-005 0.00015856,-0.00270895 -0.000285098,-0.00607745 -0.00132788,-0.010105 -0.00107377,-0.00414219 -0.00276783,-0.00893308 -0.00508374,-0.0143675l-2.06593e-006 -4.64834e-006 0 0c-0.00336953,-0.00796003 -0.00675559,-0.014462 -0.0101582,-0.0195013 -0.00334474,-0.00495203 -0.00668328,-0.00846205 -0.0100192,-0.01053l-5.16482e-006 -3.09889e-006 -5.16482e-007 1.03296e-006c-0.00193164,-0.00121941 -0.00376102,-0.00193578 -0.00548453,-0.0021496l-5.16482e-007 4.13186e-006c-0.00167444,-0.000208142 -0.00326985,5.47471e-005 -0.00478624,0.000787119 -0.00151794,0.000733921 -0.00270895,0.00181234 -0.00357251,0.00323421 -0.000889899,0.00146888 -0.00144718,0.00332253 -0.00167134,0.005562 -3.09889e-006,3.56373e-005 -8.26372e-006,7.12746e-005 -1.34285e-005,0.000105362 -0.000371351,0.00330445 1.18791e-005,0.00727155 0.00115176,0.0119018 0.0011688,0.00474492 0.00312214,0.010154 0.00586207,0.0162237l3.61538e-006 -1.54945e-006z"/>
  <path fill="#1F1A17" d="M0.138178 0.336392c0.00468449,0.00568389 0.0103043,0.0120408 0.0172066,0.0154867 -0.00832518,0.00114452 -0.0160641,0.00467933 -0.0223802,0.0102222 0.00191512,-0.0074735 0.000790218,-0.0158834 -0.000438493,-0.0231456 -0.0042429,0.00803027 -0.0133578,0.0155776 -0.0274562,0.0110646 -0.00946247,-0.00302865 -0.0151464,-0.0130247 -0.0141557,-0.0235547 0.00163518,-0.0173905 0.0130458,-0.0309244 0.0144408,-0.0544228 0.0186739,0.0143319 0.0363743,0.0145694 0.0505894,0.0247199 0.00860718,0.00614666 0.012441,0.0169876 0.00853435,0.0261226 -0.00582024,0.0136109 -0.0174933,0.0155585 -0.0263406,0.013507z"/>
  <path fill="white" d="M0.168949 0.100605l0.375997 -0.096293c0.0188578,-0.00482963 0.0385926,0.00803285 0.0438555,0.0285837l0.140259 0.547667c0.00526295,0.0205503 -0.00585949,0.041316 -0.0247173,0.0461451l-0.375997 0.0962935c-0.0188573,0.00482911 -0.0385926,-0.00803337 -0.0438555,-0.0285837l-0.140259 -0.547669c-0.00526295,-0.0205503 0.00586001,-0.0413155 0.0247173,-0.0461451l0 1.03296e-006z"/>
  <path fill="#1F1A17" fill-rule="nonzero" d="M0.168136 0.0974225l0.375984 -0.0962899 -1.03296e-006 -3.09889e-006 1.18791e-005 -3.09889e-006 1.4978e-005 -3.61538e-006 -2.06593e-006 -8.7802e-006c0.0103482,-0.00264594 0.0209211,-0.000451406 0.0296161,0.00521595 0.00859685,0.00560383 0.0153571,0.0146216 0.0182086,0.0257043l9.29668e-006 -2.58241e-006 3.61538e-006 1.34285e-005c2.58241e-005,9.65822e-005 4.80329e-005,0.000194197 6.45603e-005,0.000290263l0.140185 0.547379 9.29668e-006 -2.58241e-006 3.61538e-006 1.34285e-005 1.03296e-005 3.92527e-005 2.06593e-006 -5.16482e-007c0.00283497,0.0110847 0.00124007,0.0222516 -0.00361331,0.0313123 -0.0048978,0.0091438 -0.0131161,0.0161473 -0.0234684,0.0188067l1.03296e-006 3.09889e-006 -1.18791e-005 3.09889e-006c-5.7846e-005,1.4978e-005 -0.000115176,2.94395e-005 -0.000173538,4.13186e-005l-0.375822 0.0962491 1.03296e-006 3.09889e-006 -1.18791e-005 3.09889e-006 -1.4978e-005 4.13186e-006 2.06593e-006 8.26372e-006c-0.0103482,0.00264646 -0.0209206,0.000451922 -0.0296156,-0.00521544 -0.00859736,-0.00560435 -0.0153571,-0.0146226 -0.0182076,-0.0257053l-9.29668e-006 2.58241e-006 -3.61538e-006 -1.34285e-005c-2.42747e-005,-9.09009e-005 -4.33845e-005,-0.000180769 -5.99119e-005,-0.000272186l-0.14019 -0.547397 -9.29668e-006 2.58241e-006 -3.61538e-006 -1.34285e-005 -9.81316e-006 -3.92527e-005 -2.58241e-006 5.16482e-007c-0.00078557,-0.00307255 -0.00123026,-0.00618436 -0.00135783,-0.00928119 -0.000126538,-0.00307617 6.71427e-005,-0.00610275 0.000555218,-0.00902708 0.00254006,-0.0152089 0.0130195,-0.0280026 0.027904,-0.0318163l1.54945e-006 -5.16482e-007zm0.377618 -0.0899289l-0.375997 0.096293c-0.0122572,0.00314021 -0.0209103,0.0138133 -0.0230346,0.0265348 -0.000418351,0.00250597 -0.000585174,0.00508374 -0.000477746,0.00768732 0.000106395,0.00258344 0.000492208,0.00523506 0.00117706,0.00791561l-1.13626e-005 3.09889e-006 2.58241e-006 1.03296e-005 0.140194 0.547413c2.42747e-005,7.07581e-005 4.54504e-005,0.000141516 6.50768e-005,0.000214857l3.61538e-006 1.34285e-005 -9.29668e-006 2.58241e-006 0 1.03296e-006 9.29668e-006 3.51208e-005c0.00241869,0.00943768 0.00815061,0.0171038 0.015434,0.0218513 0.00719511,0.00468966 0.0159118,0.00651336 0.0244115,0.00433948l3.09889e-006 1.18791e-005 8.7802e-006 -2.58241e-006 0.375882 -0.0962646 9.96811e-005 -2.8923e-005 1.18791e-005 -3.09889e-006 1.03296e-006 3.09889e-006 1.18791e-005 -3.09889e-006c0.00848684,-0.00217697 0.0152497,-0.00796519 0.0193061,-0.0155373 0.00410242,-0.00765892 0.00543959,-0.017142 0.00302142,-0.0265978l1.18791e-005 -3.09889e-006 -3.09889e-006 -1.03296e-005 -0.140199 -0.547428c-2.16923e-005,-6.50768e-005 -4.2868e-005,-0.000132219 -6.09449e-005,-0.000199879l-3.61538e-006 -1.34285e-005 9.29668e-006 -2.58241e-006 -5.68131e-006 -2.27252e-005 -3.61538e-006 -1.34285e-005c-0.00241972,-0.00943716 -0.00815164,-0.0171033 -0.0154351,-0.0218503 -0.00719511,-0.00468966 -0.0159118,-0.00651336 -0.0244121,-0.00434l-3.09889e-006 -1.13626e-005 -8.7802e-006 2.06593e-006z"/>
  <path fill="#1F1A17" fill-rule="nonzero" d="M0.211906 0.194221c0.000656449,0.000332098 0.00134234,0.000572262 0.0020587,0.00071946 0.00132374,0.000272703 0.00275647,0.00023345 0.00429713,-0.000118791l-1.03296e-006 -4.64834e-006c0.00170956,-0.000437461 0.00309011,-0.0011187 0.00414012,-0.0020432 0.00102625,-0.000902811 0.00175552,-0.00205405 0.00218627,-0.00345217l5.16482e-007 -2.58241e-006 0 0c0.000126538,-0.000410603 0.000228802,-0.000845998 0.000307307,-0.00130618 8.05712e-005,-0.000473098 0.000137901,-0.000978217 0.000171472,-0.00151433 0.000178186,-0.0028515 -0.000311955,-0.0065397 -0.00147094,-0.0110641l-0.0122086 -0.0476713c-0.000667812,-0.00260772 -0.00128811,-0.00416026 -0.0018614,-0.00465712 -0.000464318,-0.000403373 -0.00151639,-0.0004669 -0.00315467,-0.000191098l-0.000943613 0.000241714 -0.00687593 0.0017612c-0.000679174,0.000173538 -0.00137074,-0.000236032 -0.0015448,-0.000915207l-0.0023221 -0.0090684c-0.000174055,-0.000679174 0.000235516,-0.00137074 0.00091469,-0.0015448l0.03447 -0.00882772c0.000679174,-0.000174055 0.00137074,0.000235516 0.0015448,0.00091469l0.00232262 0.00906891c0.000174055,0.000678658 -0.000235516,0.00137074 -0.00091469,0.00154428 -3.71867e-005,9.81316e-006 -7.43735e-005,1.75604e-005 -0.00011156,2.32417e-005l-0.00667708 0.00171007 1.54945e-006 5.16482e-006c-0.000427131,0.000108978 -0.000733921,0.000248944 -0.000919855,0.000419384 -0.000122406,0.000112077 -0.00019678,0.000257725 -0.000222604,0.000435395l-5.16482e-007 3.61538e-006c-1.13626e-005,8.10877e-005 -1.80769e-005,0.00017612 -1.91098e-005,0.000286131 -1.03296e-006,0.000122923 5.16482e-006,0.0002789 1.96263e-005,0.000468449 7.54064e-005,0.00100921 0.000375483,0.00253696 0.000899196,0.00458223l-5.16482e-006 1.03296e-006 0.0117381 0.0458332 5.16482e-006 -1.54945e-006c0.00210105,0.00820432 0.00251475,0.0149201 0.00124162,0.0201454 -0.000652834,0.00267796 -0.00177722,0.0051013 -0.00337315,0.00727 -0.00159025,0.00216045 -0.00364378,0.00406781 -0.00615957,0.00572056 -3.92527e-005,2.58241e-005 -7.95383e-005,4.90658e-005 -0.00012034,6.97251e-005 -0.00122251,0.000758712 -0.00244399,0.00137281 -0.00366341,0.00184178 -0.00125144,0.000481878 -0.00251475,0.000817591 -0.00378891,0.00100766l5.16482e-007 5.16482e-007c-0.00482653,0.000866657 -0.00908028,0.000368768 -0.0127602,-0.0014947 -0.00366341,-0.00185469 -0.00652627,-0.00469689 -0.00858807,-0.00852609 -9.29668e-006,-1.75604e-005 -1.85934e-005,-3.56373e-005 -2.68571e-005,-5.37142e-005 -0.00113884,-0.00214908 -0.00194146,-0.00424703 -0.00240732,-0.00629282 -0.000478779,-0.00210312 -0.000604801,-0.0041427 -0.000378582,-0.0061167l5.16482e-007 -4.13186e-006c6.09449e-005,-0.000528878 0.000149263,-0.0010624 0.000265472,-0.00159955 0.00011311,-0.000523713 0.000247395,-0.00101592 0.000403373,-0.00147662 0.000847031,-0.00250081 0.0023438,-0.00431728 0.00449133,-0.00544889 1.34285e-005,-6.71427e-006 2.68571e-005,-1.34285e-005 4.08021e-005,-2.01428e-005l0 -5.16482e-007 3.09889e-006 -1.54945e-006c0.000366186,-0.00017612 0.000748383,-0.0003259 0.00114607,-0.00044934 0.000393043,-0.00012189 0.000779888,-0.000209175 0.0011595,-0.00026134 0.00199982,-0.000274252 0.00393043,0.000329516 0.0057908,0.00181182 0.00123491,0.000983382 0.00221623,0.00217646 0.00294292,0.00357871 0.00070913,0.00136713 0.00116777,0.00292742 0.00137643,0.00467933l2.06593e-006 -5.16482e-007 1.03296e-006 6.19779e-006c8.36701e-005,0.000629592 0.000130154,0.00123543 0.000139967,0.00181595 9.81316e-006,0.000576394 -1.91098e-005,0.00115021 -8.6769e-005,0.00172092 -0.000313505,0.00265678 -0.00147249,0.00480483 -0.00347593,0.00644312z"/>
  <path fill="#1F1A17" d="M0.252892 0.283636c0.00360505,0.00642246 0.00801271,0.0136728 0.0141971,0.0182845 -0.00839645,-0.000345527 -0.0166385,0.00176534 -0.0238346,0.0061043 0.00320581,-0.00701693 0.00358542,-0.0154934 0.00366031,-0.0228585 -0.00559557,0.0071538 -0.0159015,0.0129704 -0.0289798,0.00603613 -0.00877813,-0.00465454 -0.0126048,-0.0154976 -0.00976823,-0.0256867 0.00468449,-0.0168275 0.0183077,-0.0281307 0.0238357,-0.0510124 0.0158457,0.017408 0.0332253,0.0207714 0.0454215,0.0332754 0.00738518,0.00757163 0.00924193,0.0189193 0.00378117,0.0272202 -0.0081346,0.0123667 -0.0199682,0.01222 -0.028313,0.00863713z"/>
  <path fill="white" d="M0.330161 0.0512857l0.387489 -0.0222971c0.0194337,-0.00111818 0.0363314,0.0152946 0.0375503,0.0364735l0.0324774 0.564409c0.0012189,0.0211789 -0.0136847,0.0394221 -0.0331189,0.0405402l-0.387489 0.0222971c-0.0194342,0.00111818 -0.0363319,-0.0152946 -0.0375503,-0.0364735l-0.032478 -0.564409c-0.00121838,-0.0211789 0.0136847,-0.0394215 0.0331189,-0.0405402l5.16482e-007 0z"/>
  <path fill="#1F1A17" fill-rule="nonzero" d="M0.329983 0.0480008l0.387488 -0.0222986 5.37142e-005 -3.09889e-006c0.010653,-0.000594988 0.0205927,0.00358645 0.0280264,0.0108064 0.00735936,0.0071476 0.0122613,0.0172908 0.0129332,0.0287056l3.61538e-006 5.8879e-005 4.64834e-006 9.76152e-005 0.0324718 0.564324 3.09889e-006 5.8879e-005c0.000640438,0.0114117 -0.00306326,0.022045 -0.00955182,0.029988 -0.00655933,0.00802872 -0.0159547,0.0133247 -0.0266071,0.0139554l-9.81316e-005 5.16482e-006 -0.38746 0.0222934 -5.37142e-005 3.09889e-006c-0.010653,0.000596537 -0.0205916,-0.00358387 -0.0280248,-0.0108043 -0.00735832,-0.0071476 -0.0122597,-0.0172908 -0.0129312,-0.0287061l-3.61538e-006 -5.83625e-005 -1.54945e-006 -3.61538e-005 -0.0324795 -0.564385 -1.54945e-006 -4.33845e-005 -1.03296e-006 -1.54945e-005 -5.16482e-007 0c-0.000180252,-0.00321872 -2.11758e-005,-0.00635273 0.000442625,-0.00936073 0.000464318,-0.00301161 0.00124266,-0.00594471 0.0022999,-0.00875489 0.00542358,-0.0144212 0.0181585,-0.0249476 0.0334872,-0.0258303l0 5.16482e-007zm0.387849 -0.015729l-0.387488 0.0222986c-0.0126218,0.000726691 -0.0231555,0.00952135 -0.0276902,0.0215797 -0.000881119,0.00234276 -0.00153757,0.00483531 -0.00193939,0.00744096 -0.00040234,0.00260927 -0.000542823,0.00528775 -0.000390977,0.00799515l-5.16482e-007 0 3.61538e-006 5.8879e-005 0.0324749 0.5643 6.19779e-006 9.50327e-005 3.61538e-006 5.83625e-005c0.000571746,0.0097171 0.00472065,0.0183294 0.0109479,0.024378 0.00615285,0.00597622 0.0143391,0.00943871 0.023078,0.00894909l5.37142e-005 -3.09889e-006 0.387492 -0.0222955 7.74723e-006 -5.16482e-007 3.30549e-005 -2.58241e-006c0.00873578,-0.000517515 0.0164686,-0.0048947 0.0218927,-0.0115341 0.00549434,-0.00672563 0.00862887,-0.0157584 0.00808295,-0.0254791l1.03296e-006 0 -1.03296e-006 -1.29121e-005 -5.16482e-007 -1.23956e-005 -2.58241e-006 -3.35713e-005 -0.0324738 -0.564361 -2.58241e-006 -3.51208e-005 -3.61538e-006 -5.8879e-005c-0.000572262,-0.00971658 -0.0047222,-0.0183289 -0.0109499,-0.0243774 -0.00615285,-0.00597622 -0.0143406,-0.00943923 -0.0230795,-0.00895115l-5.37142e-005 3.09889e-006 -5.16482e-007 1.03296e-006z"/>
  <path fill="#1F1A17" fill-rule="nonzero" d="M0.358462 0.144375c2.06593e-005,-0.00102625 0.000218472,-0.00200963 0.000592922,-0.00295015l3.97691e-005 -9.86481e-005 5.16482e-007 5.16482e-007c7.59229e-005,-0.000183868 0.000155978,-0.000358439 0.000240164,-0.00052423l1.03296e-006 -2.06593e-006 3.09889e-006 -5.68131e-006 1.54945e-005 -2.9956e-005c8.98679e-005,-0.000173538 0.000184384,-0.000337263 0.000283549,-0.000490142l5.16482e-006 -8.26372e-006c5.42306e-005,-8.26372e-005 0.000109494,-0.000162692 0.000165791,-0.000239648l1.03296e-006 -1.03296e-006 2.06593e-005 -2.73736e-005 1.54945e-006 -2.58241e-006 1.96263e-005 -2.58241e-005c4.2868e-005,-5.62966e-005 8.6769e-005,-0.000111044 0.000131187,-0.000163725l5.16482e-007 -5.16482e-007 7.74723e-006 -9.29668e-006 1.44615e-005 -1.70439e-005 8.7802e-006 -1.03296e-005 1.3945e-005 -1.54945e-005 9.29668e-006 -1.08461e-005 3.56373e-005 -4.02856e-005 1.13626e-005 -1.29121e-005 1.18791e-005 -1.23956e-005 6.04284e-005 -6.45603e-005 8.7802e-006 -9.81316e-006 1.54945e-005 -1.54945e-005 7.74723e-006 -8.26372e-006 1.65274e-005 -1.65274e-005 7.23075e-006 -7.23075e-006 1.70439e-005 -1.70439e-005 6.71427e-006 -6.71427e-006 1.80769e-005 -1.75604e-005 5.68131e-006 -5.16482e-006 1.91098e-005 -1.91098e-005 4.64834e-006 -4.13186e-006 4.80329e-005 -4.4934e-005 2.27252e-005 -2.06593e-005 1.54945e-006 -1.54945e-006 2.37582e-005 -2.11758e-005 1.03296e-006 -5.16482e-007 2.47912e-005 -2.16923e-005 1.29121e-005 -1.13626e-005 6.71427e-006 -5.68131e-006 4.13186e-006 -3.61538e-006 2.58241e-006 -2.06593e-006 2.01428e-005 -1.70439e-005 1.54945e-006 -1.54945e-006 5.16482e-006 -4.13186e-006 6.71427e-006 -5.16482e-006 6.71427e-006 -5.68131e-006 1.34285e-005 -1.13626e-005 6.71427e-006 -5.16482e-006c0.000115692,-9.39998e-005 0.000237065,-0.000179736 0.000363604,-0.000257208l0 0c0.000414735,-0.000254626 0.000887317,-0.0004199 0.00141671,-0.000496339 5.06153e-005,-7.23075e-006 0.000100198,-1.70439e-005 0.00014823,-2.94395e-005 0.000104329,-1.75604e-005 0.000207109,-3.04725e-005 0.000307823,-3.82197e-005 0.000122923,-9.29668e-006 0.000246879,-1.18791e-005 0.000370834,-7.23075e-006 0.000599119,2.32417e-005 0.00116415,0.000237065 0.00169355,0.000640438l1.03296e-006 1.03296e-006c0.000114143,8.72855e-005 0.000236549,0.000190065 0.000366702,0.000308856 0.000139967,0.000128088 0.000288197,0.000272703 0.000443658,0.000433845 0.000208659,0.000215373 0.000429713,0.000460186 0.000663163,0.000733405l1.08461e-005 1.23956e-005 2.42747e-005 2.84065e-005 2.06593e-005 2.42747e-005 1.3945e-005 1.65274e-005 3.09889e-005 3.66702e-005 4.13186e-006 5.16482e-006 3.56373e-005 4.18351e-005 5.68131e-006 7.23075e-006 2.9956e-005 3.51208e-005 1.6011e-005 1.91098e-005 1.96263e-005 2.37582e-005 2.63406e-005 3.15054e-005 9.29668e-006 1.18791e-005 3.61538e-005 4.33845e-005 5.16482e-007 1.03296e-006 3.56373e-005 4.2868e-005 1.13626e-005 1.3945e-005 2.53076e-005 3.04725e-005 2.16923e-005 2.68571e-005 1.4978e-005 1.80769e-005 3.20219e-005 3.97691e-005 4.64834e-006 5.68131e-006 3.71867e-005 4.59669e-005 5.68131e-006 7.23075e-006 6.86921e-005 8.52196e-005 2.73736e-005 3.40878e-005 1.03296e-005 1.29121e-005 3.77032e-005 4.75164e-005 5.16482e-007 5.16482e-007 3.77032e-005 4.69999e-005 0.000153912 0.000195747 6.19779e-006 7.74723e-006 0.000147197 0.000190065 3.09889e-006 4.13186e-006 5.16482e-007 1.03296e-006 3.92527e-005 5.06153e-005 3.97691e-005 5.21647e-005 2.37582e-005 3.04725e-005 1.65274e-005 2.22087e-005 6.71427e-005 8.83185e-005 5.42306e-005 7.12746e-005 1.80769e-005 2.42747e-005 2.27252e-005 2.9956e-005 2.94395e-005 3.97691e-005 1.13626e-005 1.4978e-005 4.13186e-005 5.47471e-005 5.16482e-007 5.16482e-007 8.57361e-005 0.000115692 7.48899e-005 0.000100714 5.68131e-006 7.23075e-006 4.18351e-005 5.73295e-005 6.71427e-006 8.7802e-006 7.85053e-005 0.000106395 3.04725e-005 4.23515e-005 1.18791e-005 1.65274e-005 4.2868e-005 5.83625e-005 5.16482e-007 5.16482e-007 5.52636e-005 7.59229e-005 3.09889e-005 4.23515e-005 5.16482e-006 7.74723e-006c0.00011156,0.000153912 0.000225186,0.000311955 0.000340362,0.000474131l7.23075e-006 1.03296e-005 1.29121e-005 1.80769e-005 0.000165274 0.000233966 3.09889e-006 4.13186e-006 6.19779e-006 9.29668e-006 1.03296e-006 1.03296e-006 8.41866e-005 0.000119824 3.30549e-005 4.69999e-005 1.29121e-005 1.91098e-005 4.64834e-005 6.61097e-005 2.789e-005 3.77032e-005 -5.16482e-007 5.16482e-007 1.03296e-006 1.54945e-006c1.75604e-005,2.37582e-005 3.66702e-005,4.64834e-005 5.52636e-005,6.86921e-005 0.00013945,0.000195747 0.000302142,0.000432296 0.000488592,0.00070913 0.000182318,0.000271153 0.000363604,0.000551087 0.000543856,0.000837734l2.58241e-006 4.64834e-006 3.09889e-006 4.13186e-006 2.58241e-006 4.64834e-006 3.09889e-006 5.16482e-006 3.09889e-006 4.13186e-006 2.58241e-005 4.23515e-005 3.09889e-006 4.64834e-006 3.09889e-006 4.64834e-006 2.58241e-006 4.64834e-006 2.06593e-005 3.25384e-005 2.06593e-006 3.09889e-006 5.16482e-007 1.54945e-006 1.4978e-005 2.37582e-005 2.58241e-006 4.64834e-006 3.09889e-006 4.64834e-006 3.09889e-006 4.64834e-006 2.58241e-006 4.64834e-006 3.09889e-006 4.64834e-006 3.09889e-006 4.64834e-006 2.58241e-006 4.64834e-006 8.7802e-006 1.44615e-005 2.58241e-006 4.13186e-006 1.4978e-005 2.37582e-005 2.58241e-006 4.64834e-006 3.09889e-006 4.64834e-006 3.09889e-006 4.64834e-006 1.03296e-006 1.54945e-006 1.54945e-006 3.61538e-006 3.09889e-006 4.13186e-006 3.09889e-006 5.16482e-006 2.58241e-006 4.64834e-006 2.58241e-006 4.64834e-006 3.09889e-006 4.64834e-006 3.09889e-006 4.64834e-006 2.58241e-006 4.64834e-006 3.09889e-006 4.64834e-006 2.58241e-006 4.64834e-006 3.09889e-006 5.16482e-006 3.09889e-006 4.13186e-006c0.000701899,0.00114504 0.00136455,0.00237892 0.00198639,0.00370163 -0.000817075,0.00059757 -0.00165326,0.00108306 -0.00250855,0.00145648l-7.23075e-006 2.58241e-006 -0.000119824 5.16482e-005 -2.58241e-006 1.03296e-006c-7.59229e-005,3.20219e-005 -0.000151846,6.30108e-005 -0.000227769,9.34833e-005l-9.81316e-006 3.61538e-006 -0.00012034 4.69999e-005 -5.16482e-007 0 -0.000120857 4.54504e-005 -9.81316e-006 3.61538e-006 -9.86481e-005 3.61538e-005 -1.23956e-005 4.13186e-006 -2.01428e-005 7.23075e-006 -9.86481e-005 3.46043e-005 -2.06593e-006 1.03296e-006 -0.00012189 4.08021e-005 -7.74723e-006 2.58241e-006 -9.86481e-005 3.25384e-005 -1.54945e-005 4.64834e-006 -1.75604e-005 5.68131e-006 -3.30549e-005 1.03296e-005 -1.03296e-005 3.09889e-006 -2.27252e-005 7.23075e-006 -3.30549e-005 1.03296e-005 -5.16482e-006 1.54945e-006 -6.09449e-005 1.80769e-005 -2.22087e-005 6.71427e-006 -2.16923e-005 6.71427e-006 -2.22087e-005 6.71427e-006 -7.74723e-006 2.06593e-006 -1.44615e-005 4.13186e-006 -2.22087e-005 6.71427e-006 -2.16923e-005 6.19779e-006 -2.22087e-005 6.19779e-006 -2.16923e-005 6.19779e-006 -2.22087e-005 6.19779e-006 -4.44175e-005 1.23956e-005 -2.16923e-005 6.19779e-006 -2.27252e-005 5.68131e-006 -7.74723e-006 2.58241e-006 -1.3945e-005 3.61538e-006 -2.22087e-005 5.68131e-006 -0.000133252 3.51208e-005 -2.16923e-005 5.16482e-006 -2.27252e-005 5.68131e-006 -4.44175e-005 1.08461e-005 -2.16923e-005 5.68131e-006 -1.70439e-005 4.13186e-006 -5.68131e-006 1.03296e-006 -2.16923e-005 5.16482e-006c-0.000193164,4.59669e-005 -0.000386845,8.6769e-005 -0.000581559,0.00012189l-2.27252e-005 4.13186e-006c-6.71427e-005,1.18791e-005 -0.000134802,2.32417e-005 -0.000202461,3.40878e-005l0 5.16482e-007c-0.00556561,0.000889899 -0.00850698,-0.00157527 -0.00838767,-0.00742805zm0.00156701 -0.0182453l-5.16482e-007 0 -8.21207e-005 2.37582e-005 -5.16482e-007 0 -1.08461e-005 3.09889e-006 -3.04725e-005 8.7802e-006 0 0 -1.08461e-005 3.09889e-006 -2.8923e-005 8.7802e-006 -1.54945e-006 5.16482e-007 -1.08461e-005 3.09889e-006 -1.03296e-005 3.09889e-006 -5.62966e-005 1.70439e-005 -1.03296e-005 3.09889e-006 -1.54945e-005 4.64834e-006 -1.03296e-005 3.09889e-006 -1.03296e-005 3.09889e-006 0 5.16482e-007 -2.01428e-005 6.19779e-006 -1.03296e-005 3.09889e-006 -1.03296e-005 3.09889e-006 -3.61538e-006 1.03296e-006 -0.00013945 4.4934e-005 0 0 -1.03296e-005 3.61538e-006 -2.06593e-006 5.16482e-007 -7.74723e-006 2.58241e-006 -1.03296e-005 3.09889e-006 -1.03296e-005 3.61538e-006 -1.75604e-005 5.68131e-006 -2.58241e-006 1.03296e-006 -1.03296e-005 3.61538e-006 -1.03296e-005 3.09889e-006 -2.01428e-005 6.71427e-006 -1.91098e-005 6.71427e-006 -1.91098e-005 6.71427e-006 -1.96263e-005 6.71427e-006 -3.30549e-005 1.13626e-005 -5.16482e-006 1.54945e-006c-5.11317e-005,1.80769e-005 -0.000102263,3.61538e-005 -0.000152879,5.47471e-005l-1.91098e-005 6.71427e-006 -4.13186e-006 1.54945e-006 -5.26812e-005 1.96263e-005 -1.85934e-005 7.23075e-006 -3.56373e-005 1.29121e-005 -2.58241e-006 1.03296e-006 -1.85934e-005 7.23075e-006 -1.91098e-005 7.23075e-006 -1.85934e-005 7.23075e-006 -1.3945e-005 5.16482e-006 -4.64834e-006 2.06593e-006 -1.91098e-005 7.74723e-006 -1.85934e-005 7.23075e-006 -3.09889e-006 1.03296e-006 -0.000101231 4.02856e-005 -1.75604e-005 6.71427e-006c-0.00168735,0.00068279 -0.00315829,0.00175707 -0.00441282,0.00322285l-5.68131e-006 6.71427e-006c-0.000389428,0.000455537 -0.000749416,0.000938448 -0.00107996,0.00144718 -0.000332615,0.000511834 -0.000634757,0.00104743 -0.000906943,0.00160574 -0.00111095,0.00228285 -0.00176998,0.0050326 -0.00197709,0.00824822 -0.000185417,-0.000263406 -0.000366702,-0.000529394 -0.000544372,-0.000797965 -0.000854262,-0.00129069 -0.00162795,-0.00264129 -0.00232055,-0.00405129 -0.00361434,-0.00735884 -0.00522009,-0.0165992 -0.00481826,-0.0277201l1.03296e-006 0 5.16482e-007 -6.71427e-006c4.23515e-005,-0.000975119 0.000106395,-0.00195953 0.000191098,-0.00295273 8.36701e-005,-0.000978217 0.000185417,-0.00192854 0.000305241,-0.00284995 0.000620295,-0.0047754 0.00174364,-0.0090999 0.00337005,-0.012974l1.54945e-006 1.03296e-006c0.00176895,-0.00406213 0.00391287,-0.00714088 0.00643175,-0.00923677 0.00245484,-0.00204165 0.00529394,-0.00315519 0.00851731,-0.00334112 0.00322337,-0.000185417 0.00617145,0.000595504 0.00884424,0.00234225 0.00274304,0.00179271 0.00522628,0.00460547 0.00744922,0.00843777 1.23956e-005,2.22087e-005 2.63406e-005,4.33845e-005 3.97691e-005,6.45603e-005 0.00147094,0.00251527 0.00270275,0.00528568 0.00369491,0.0083102 0.00100094,0.00305293 0.00175552,0.00636823 0.00226374,0.00994693 5.16482e-006,3.56373e-005 1.18791e-005,7.07581e-005 1.96263e-005,0.000105362 0.00104691,0.00682686 0.00118739,0.0129823 0.000422483,0.0184653 -0.000664713,0.00476093 -0.00201583,0.00900745 -0.00405387,0.012739l-0.00133149 -0.00169716c-2.22087e-005,-2.84065e-005 -4.4934e-005,-5.47471e-005 -6.86921e-005,-8.05712e-005 -0.000654383,-0.000827921 -0.00128656,-0.0015918 -0.00189601,-0.00229008 -0.000666262,-0.000763361 -0.0013005,-0.00145028 -0.00190169,-0.00205973 -0.00213824,-0.00216768 -0.00416698,-0.00371402 -0.00608674,-0.00464059l0 -5.16482e-007 -6.09449e-005 -2.8923e-005 -8.6769e-005 -4.08021e-005 -4.90658e-005 -2.27252e-005 -5.68131e-006 -2.58241e-006 -7.90218e-005 -3.61538e-005 -2.37582e-005 -1.08461e-005 -8.7802e-005 -3.92527e-005 -4.90658e-005 -2.16923e-005 -4.85493e-005 -2.11758e-005 -4.90658e-005 -2.06593e-005 -4.85493e-005 -2.06593e-005 -1.18791e-005 -5.16482e-006 -8.57361e-005 -3.56373e-005 -4.85493e-005 -1.96263e-005 -4.85493e-005 -1.96263e-005 0 -5.16482e-007 -2.06593e-006 -5.16482e-007c-0.00024223,-9.70987e-005 -0.000482911,-0.000183868 -0.000721526,-0.000260307l-8.72855e-005 -2.73736e-005 -4.64834e-006 -1.54945e-006 -3.09889e-006 -1.03296e-006 -7.23075e-006 -2.06593e-006 -7.64394e-005 -2.37582e-005 -0.000106912 -3.09889e-005 -4.75164e-005 -1.3945e-005 -2.58241e-006 -5.16482e-007 -6.66262e-005 -1.85934e-005 -4.23515e-005 -1.18791e-005c-4.18351e-005,-1.13626e-005 -8.36701e-005,-2.22087e-005 -0.000125505,-3.25384e-005l-4.69999e-005 -1.23956e-005 -4.75164e-005 -1.13626e-005 -4.69999e-005 -1.13626e-005 -4.69999e-005 -1.13626e-005 -1.54945e-005 -3.61538e-006 -7.85053e-005 -1.75604e-005 -4.13186e-005 -9.29668e-006 -5.68131e-006 -1.03296e-006 -4.69999e-005 -9.81316e-006 -4.69999e-005 -9.81316e-006 -9.03844e-005 -1.80769e-005 -3.09889e-006 -1.03296e-006 -4.64834e-005 -8.7802e-006 -2.47912e-005 -4.64834e-006 -0.000116725 -2.06593e-005 -4.64834e-005 -7.74723e-006 -6.50768e-005 -1.08461e-005 -5.99119e-005 -9.29668e-006 -0.000104846 -1.4978e-005c-1.70439e-005,-2.58241e-006 -3.35713e-005,-4.13186e-006 -5.00988e-005,-5.68131e-006l-6.66262e-005 -8.26372e-006 -8.26372e-006 -1.03296e-006 -5.7846e-005 -7.74723e-006 -8.26372e-006 -5.16482e-007 -0.000122923 -1.4978e-005 -2.06593e-006 -5.16482e-007c-8.47031e-005,-9.81316e-006 -0.00016889,-1.91098e-005 -0.000253076,-2.789e-005l-8.26372e-006 -1.03296e-006c-0.00193423,-0.000199362 -0.00370783,-7.23075e-005 -0.00532132,0.000382197zm-0.0144 -0.0541955c-6.19779e-005,4.02856e-005 -0.000123956,8.00548e-005 -0.000185417,0.000120857 -9.70987e-005,-0.00017612 -0.000190582,-0.000333648 -0.00028045,-0.000467933l0.000465867 0.000347076zm-0.00108048 -0.000804679c-0.000765427,0.000511317 -0.00150968,0.00105931 -0.00223172,0.00164293 -0.00369698,0.00298888 -0.00683358,0.00692861 -0.00940927,0.0118176 -0.00305654,0.00580268 -0.00497527,0.0122608 -0.00575516,0.0193733 -0.00077524,0.00707219 -0.000422999,0.0147848 0.00105621,0.0231369 0.000815526,0.00416853 0.00184281,0.00813924 0.00352189,0.0120547 0.0016011,0.00373417 0.00362106,0.00715793 0.00606092,0.0102713 0.00244709,0.00312317 0.00512247,0.00571849 0.0080251,0.00778442 0.00291244,0.00207264 0.00605111,0.00360763 0.00941599,0.00460341 0.0033623,0.000995778 0.00686198,0.00137849 0.0104985,0.00114969l0.000136868 8.62525e-005c0.00362467,-0.000230351 0.00725813,-0.00115434 0.0111385,-0.00259584l1.65274e-005 -5.68131e-006c0.00016889,-5.73295e-005 0.00029078,-0.000100714 0.000370834,-0.000131187 0.000140483,-5.26812e-005 0.000281483,-0.000108978 0.000422999,-0.000167857 2.11758e-005,-8.7802e-006 4.23515e-005,-1.80769e-005 6.30108e-005,-2.789e-005 0.00028045,-0.000119307 0.000559867,-0.000248428 0.000836701,-0.000387878 6.24944e-005,0.000119307 0.000124989,0.000237065 0.000188516,0.000352757 0.000275802,0.00050357 0.000558317,0.000973053 0.000846514,0.00140793 2.01428e-005,3.09889e-005 4.23515e-005,6.09449e-005 6.45603e-005,8.98679e-005 0.000197813,0.000285098 0.000379614,0.000540757 0.000546438,0.000767493 0.000187483,0.000254109 0.000393043,0.000523197 0.000615647,0.000805712 0.00107377,0.00136351 0.00222191,0.00258293 0.00344339,0.00365824l2.11758e-005 1.80769e-005 -5.16482e-007 5.16482e-007c0.00659393,0.0055465 0.0126146,0.00572159 0.0180624,0.000526295 2.63406e-005,-2.53076e-005 5.11317e-005,-5.06153e-005 7.48899e-005,-7.69559e-005 0.00217026,-0.00217078 0.00373158,-0.00501194 0.00468346,-0.00852454 0.000935349,-0.00345062 0.00128191,-0.00755975 0.0010402,-0.0123264l0 0 -0.000285615 -0.00657275c-3.20219e-005,-0.000694152 -0.000617713,-0.00123181 -0.00131135,-0.00120547l0 0 -0.00571281 0.000201945c-0.000697768,2.63406e-005 -0.00124266,0.000613581 -0.0012158,0.00131135l1.03296e-006 2.47912e-005 -4.64834e-006 5.16482e-007 0.000254109 0.00442006c7.74723e-005,0.0013475 1.18791e-005,0.0026981 -0.000197296,0.0040518l-1.03296e-006 -5.16482e-007c-0.000477746,0.00300231 -0.00147404,0.00492208 -0.00298837,0.00575929l-2.06593e-006 -3.61538e-006 -2.58241e-006 1.03296e-006c-2.84065e-005,1.54945e-005 -5.52636e-005,3.20219e-005 -8.21207e-005,4.95823e-005 -0.000160626,8.31536e-005 -0.000324867,0.000151846 -0.000491175,0.000206593l-4.64834e-006 2.06593e-006 -5.16482e-007 -1.54945e-006c-0.000184901,6.09449e-005 -0.000363604,0.000101231 -0.000535592,0.00012034 -0.000970987,0.000106912 -0.00201841,-0.000388911 -0.00314073,-0.00148747l-2.06593e-006 -2.06593e-006c-5.31977e-005,-5.16482e-005 -0.000136351,-0.000135318 -0.000246879,-0.000246879 -0.00012034,-0.00012189 -0.000194197,-0.000197296 -0.000223637,-0.000228285 -0.000341395,-0.000359472 -0.000588273,-0.00065335 -0.000739603,-0.000881635 -5.52636e-005,-8.47031e-005 -0.000119307,-0.00016011 -0.000190065,-0.000226736 -0.00014823,-0.000157011 -0.000337779,-0.000391494 -0.000567614,-0.000703449 -0.00012189,-0.000165274 -0.000258241,-0.000357922 -0.00040957,-0.000579493 0.000534559,-0.00062701 0.00106705,-0.0012943 0.001598,-0.00200189 0.000730306,-0.000972536 0.00147869,-0.00205457 0.00224515,-0.00324506 8.7802e-006,-1.34285e-005 1.75604e-005,-2.68571e-005 2.58241e-005,-4.02856e-005l3.61538e-006 2.06593e-006 2.06593e-006 -3.61538e-006 1.03296e-006 5.16482e-007 1.54945e-006 -2.06593e-006c9.29668e-006,-1.6011e-005 1.80769e-005,-3.20219e-005 2.68571e-005,-4.80329e-005 0.00069002,-0.0011657 0.00133459,-0.00239699 0.00193319,-0.00369388 0.000599119,-0.00129844 0.00113936,-0.00264077 0.00161969,-0.00402495 0.00246569,-0.00710163 0.00342324,-0.0154304 0.00287319,-0.0249859 -0.000408537,-0.0071037 -0.00160988,-0.0135122 -0.00360298,-0.0192261 -0.0020024,-0.0057407 -0.0048069,-0.0107785 -0.00841401,-0.0151128 -0.0106762,-0.012831 -0.0300112,-0.0162532 -0.0439671,-0.00693068z"/>
  <path fill="#1F1A17" d="M0.377395 0.247031c0.00230454,0.00699524 0.00523816,0.0149573 0.0104216,0.0206712 -0.00817385,-0.00195179 -0.0166679,-0.00146268 -0.0245634,0.0014131 0.00449391,-0.00627061 0.00649425,-0.0145163 0.00798172,-0.0217294 -0.00686508,0.00594574 -0.0180965,0.00967475 -0.0295996,0.000358439 -0.00772089,-0.00625357 -0.00939378,-0.0176296 -0.00465351,-0.0270848 0.00782884,-0.0156143 0.0233693,-0.0240913 0.0331881,-0.0454856 0.0122076,0.0201268 0.0286183,0.0267651 0.0381861,0.0413785 0.0057939,0.00884889 0.00543649,0.0203422 -0.00151639,0.0274397 -0.0103581,0.0105745 -0.0219433,0.00815835 -0.0294447,0.00303898z"/>
  <path fill="white" d="M0.496813 0.0353511l0.385103 0.0483794c0.0193144,0.00242643 0.0329536,0.0216329 0.0303092,0.0426811l-0.0704678 0.560933c-0.00264439,0.0210487 -0.0206107,0.0362844 -0.0399251,0.033858l-0.385103 -0.0483789c-0.0193144,-0.00242643 -0.0329536,-0.0216329 -0.0303098,-0.0426811l0.0704683 -0.560933c0.00264439,-0.0210482 0.0206102,-0.0362844 0.0399246,-0.033858l5.16482e-007 -5.16482e-007z"/>
  <path fill="#1F1A17" fill-rule="nonzero" d="M0.497212 0.0320797l0.385105 0.0483779 2.47912e-005 3.09889e-006c9.91646e-005,1.18791e-005 0.00019678,2.94395e-005 0.000292845,5.00988e-005 0.0028923,0.000387878 0.0056529,0.00111044 0.00825235,0.00212687 0.00270327,0.00105621 0.00524333,0.00242437 0.00758609,0.00405697 0.0119746,0.00834584 0.019084,0.0237313 0.0170269,0.0401172l-0.0704683 0.560932c-1.23956e-005,0.000100714 -2.84065e-005,0.000200395 -4.90658e-005,0.000297494 -0.000408021,0.0030927 -0.00112128,0.00606144 -0.0020995,0.00887472 -0.00100766,0.0028985 -0.0022999,0.00564102 -0.0038323,0.00818934 -0.00795176,0.0132214 -0.0223874,0.0212827 -0.0376159,0.0193712l-0.385103 -0.0483804 -2.47912e-005 -3.09889e-006c-0.000100714,-1.23956e-005 -0.000199362,-2.789e-005 -0.000296461,-4.90658e-005 -0.00289023,-0.000388395 -0.00565032,-0.00111199 -0.00824822,-0.00212739 -0.00270327,-0.00105621 -0.00524333,-0.00242437 -0.00758609,-0.00405697 -0.0119746,-0.00834584 -0.0190845,-0.0237308 -0.0170258,-0.0401157l0.0704694 -0.560933c1.23956e-005,-0.000100198 2.94395e-005,-0.000198329 5.06153e-005,-0.000295428 0.00148437,-0.0112536 0.00703501,-0.0209599 0.0148055,-0.0275497 0.00791148,-0.00670911 0.0181187,-0.0102114 0.0287128,-0.00888866l2.47912e-005 3.09889e-006 -1.03296e-006 -5.16482e-007zm0.384306 0.0549217l-0.385105 -0.0483779 -2.47912e-005 -3.09889e-006c-0.00870118,-0.00108668 -0.0171157,0.00181595 -0.0236637,0.00736917 -0.0065743,0.00557491 -0.0112738,0.0138056 -0.0125402,0.0233657 -3.61538e-006,8.41866e-005 -1.23956e-005,0.000168373 -2.27252e-005,0.000253593l-0.0704694 0.560933c-0.00174726,0.0139084 0.0042021,0.0269082 0.014243,0.0339065 0.00193991,0.00135215 0.0040234,0.00247705 0.00622155,0.00333596 0.0021403,0.000836701 0.00438545,0.00143014 0.00670497,0.00174468 8.05712e-005,4.13186e-006 0.000160626,9.81316e-006 0.000241714,1.96263e-005l2.47912e-005 3.09889e-006 0.385103 0.0483804c0.0125691,0.00157734 0.0245365,-0.00516327 0.0311754,-0.016202 0.00130515,-0.00217026 0.00240577,-0.00450734 0.0032652,-0.00697871 0.000837218,-0.00240836 0.00144718,-0.00493912 0.00179426,-0.00756233 4.13186e-006,-8.10877e-005 9.81316e-006,-0.000162692 1.96263e-005,-0.000244296l0.0704683 -0.560932c0.00174623,-0.0139099 -0.00420313,-0.0269098 -0.0142441,-0.0339081 -0.00193991,-0.00135215 -0.0040234,-0.00247705 -0.00622155,-0.00333596 -0.00213772,-0.000836185 -0.00437822,-0.00142704 -0.00669413,-0.00174209 -8.36701e-005,-4.13186e-006 -0.000168373,-1.23956e-005 -0.000253076,-2.27252e-005l-2.47912e-005 -3.09889e-006 1.03296e-006 5.16482e-007z"/>
  <path fill="#1F1A17" fill-rule="nonzero" d="M0.510367 0.151974l-0.036677 -0.00460754c-0.000695702,-8.7802e-005 -0.00118894,-0.000722559 -0.00110166,-0.00141774l0.00115124 -0.00916291c8.72855e-005,-0.000695702 0.000722042,-0.00118894 0.00141774,-0.00110114l0.00841505 0.00105672c0.000123439,1.54945e-005 0.000221571,2.22087e-005 0.000294911,2.06593e-005 1.4978e-005,-5.16482e-007 1.03296e-005,4.64834e-006 5.16482e-006,8.26372e-006 0.000103296,-3.25384e-005 0.000211758,-5.26812e-005 0.000324351,-5.73295e-005 0.000397691,-1.80769e-005 0.000716361,-6.35273e-005 0.000954976,-0.000135835 0.000149263,-4.54504e-005 0.000248428,-9.24503e-005 0.00029801,-0.000139967 0.000158044,-0.000153395 0.000341911,-0.0004669 0.000551087,-0.000939998 6.50768e-005,-0.000147714 0.000113626,-0.00026134 0.000145132,-0.000340878 3.30549e-005,-8.41866e-005 6.81757e-005,-0.000175604 0.000104846,-0.000274252l0.000570713 -0.00383333c2.58241e-006,-2.27252e-005 5.16482e-006,-4.54504e-005 9.29668e-006,-6.81757e-005l0.000671427 -0.00390202 4.13186e-006 -3.82197e-005 0.00671737 -0.0534699c0.000183868,-0.00146629 0.000291812,-0.00263768 0.000323834,-0.00351466 2.94395e-005,-0.000821723 2.06593e-006,-0.0013945 -8.26372e-005,-0.00171782 -4.44175e-005,-0.000170439 -0.000146164,-0.000320219 -0.000304725,-0.000448307 -0.000214857,-0.000174055 -0.000522164,-0.000317637 -0.000921404,-0.000430746l-0.000765427 -9.60657e-005 -0.00859736 -0.00108048c-0.000695702,-8.72855e-005 -0.00118843,-0.000722042 -0.00110114,-0.00141774l0.00116673 -0.0092879c8.72855e-005,-0.000695702 0.000722042,-0.00118894 0.00141774,-0.00110166l0.0346653 0.00435498c0.000695185,8.72855e-005 0.00118843,0.000722042 0.00110114,0.00141774l-0.00116673 0.00928842c-8.72855e-005,0.000695702 -0.000722559,0.00118843 -0.00141774,0.00110114l-0.00695134 -0.000873372c-0.000515449,-6.45603e-005 -0.000890415,3.61538e-006 -0.00112541,0.000204011 -0.000274769,0.000234999 -0.000467416,0.000677108 -0.000576911,0.00132581 -4.13186e-006,4.13186e-005 -1.03296e-005,8.31536e-005 -1.85934e-005,0.000124472l-0.000235516 0.00117603 -0.000359988 0.00286699 -0.00341343 0.027169 0.0269924 -0.0250267 1.54945e-006 1.54945e-006 1.4978e-005 -1.44615e-005c0.000616163,-0.000553669 0.00115847,-0.0011218 0.00162692,-0.00170233 0.000453988,-0.000562966 0.000843416,-0.00114298 0.00116725,-0.00174003 9.60657e-005,-0.000211241 0.000150813,-0.00040079 0.000163725,-0.000566581 9.81316e-006,-0.000124989 -7.23075e-006,-0.000241714 -5.16482e-005,-0.000350175 -4.54504e-005,-0.000112593 -0.000144099,-0.000204527 -0.000294395,-0.000275802 -5.62966e-005,-2.63406e-005 -0.000105362,-4.64834e-005 -0.000146164,-6.04284e-005 -5.21647e-005,-1.80769e-005 -0.000117241,-3.61538e-005 -0.000196263,-5.47471e-005l0 -5.16482e-007 -1.54945e-006 -5.16482e-007 0 0 -3.87362e-005 -9.81316e-006c-0.000265472,-7.07581e-005 -0.000613064,-0.000143582 -0.00104278,-0.000216406 -0.000394592,-6.76592e-005 -0.000931734,-0.000144099 -0.00161142,-0.000229318l-0.00585381 -0.000735471c-0.000695702,-8.72855e-005 -0.00118894,-0.000722042 -0.00110166,-0.00141774l0.00116725 -0.00928842c8.72855e-005,-0.000695185 0.000722042,-0.00118843 0.00141774,-0.00110114l0.0347567 0.00436634c0.000695185,8.72855e-005 0.00118843,0.000722042 0.00110114,0.00141774l-0.00116673 0.00928842c-8.7802e-005,0.000695185 -0.000722559,0.00118843 -0.00141774,0.00110114l-0.00640283 -0.000804163c-0.000432812,-5.47471e-005 -0.000788152,-6.71427e-005 -0.00106602,-3.77032e-005 -7.90218e-005,8.26372e-006 -0.000124472,1.34285e-005 -0.000131187,1.44615e-005 -1.85934e-005,3.09889e-006 -4.02856e-005,8.26372e-006 -6.55933e-005,1.3945e-005 -0.000530944,0.000194197 -0.00123078,0.000598086 -0.00209847,0.00121115 -0.000137384,9.70987e-005 -0.000330032,0.000238615 -0.000577427,0.000424032 -0.000178703,0.000134285 -0.000359988,0.000273736 -0.000543339,0.000417834 -1.96263e-005,1.75604e-005 -3.97691e-005,3.46043e-005 -6.04284e-005,5.16482e-005l-0.00382972 0.00364533 -1.54945e-006 -2.06593e-006 -2.06593e-005 1.91098e-005 -0.0181869 0.0166173 0.0201201 0.0404901 -2.06593e-006 1.03296e-006 0.000302659 0.000546955c1.44615e-005,2.22087e-005 2.84065e-005,4.44175e-005 4.13186e-005,6.76592e-005l0.00225961 0.00393766 1.91098e-005 3.09889e-005c0.000570196,0.000960141 0.00101024,0.00164138 0.00132013,0.0020432 6.50768e-005,8.47031e-005 0.00011311,0.000144615 0.000143582,0.000179736 2.84065e-005,3.25384e-005 5.68131e-005,6.24944e-005 8.52196e-005,8.98679e-005l1.03296e-006 5.16482e-007c6.66262e-005,6.35273e-005 0.000191098,0.000133252 0.000373417,0.000208659 0.000246362,0.000102263 0.00058001,0.000198329 0.00099991,0.000288197l-5.16482e-007 3.61538e-006c0.00013945,2.94395e-005 0.000276318,8.26372e-005 0.000404406,0.000161659 1.34285e-005,8.26372e-006 -9.29668e-006,-8.7802e-006 1.08461e-005,-2.58241e-006 4.3901e-005,1.29121e-005 0.000110527,2.53076e-005 0.000198846,3.66702e-005l0.00347541 0.000436428c0.000695702,8.72855e-005 0.00118894,0.000722042 0.00110114,0.00141774l-0.00115072 0.00916291c-8.72855e-005,0.000695185 -0.000722559,0.00118843 -0.00141774,0.00110114l-0.0372265 -0.00467675c-0.000695185,-8.72855e-005 -0.00118843,-0.000722042 -0.00110114,-0.00141774l0.00115124 -0.0091624c8.72855e-005,-0.000695702 0.000722042,-0.00118894 0.00141774,-0.00110166l0.00411585 0.000516999c0.000467933,5.8879e-005 0.000983899,0.000114659 0.00154635,0.00016734l0.000398208 3.66702e-005 7.23075e-006 5.16482e-007 0.000443142 3.92527e-005 3.77032e-005 3.61538e-006c0.000436944,3.77032e-005 0.000847547,7.54064e-005 0.00123439,0.00011311l0 0 5.16482e-006 5.16482e-007 0.000207109 2.06593e-005c0.000377549,3.77032e-005 0.000706548,7.3857e-005 0.000986998,0.000107945 0.000315054,1.03296e-006 0.000572779,-5.7846e-005 0.000773174,-0.000177153 3.20219e-005,-1.91098e-005 6.86921e-005,-4.4934e-005 0.000109494,-7.64394e-005 2.37582e-005,-1.85934e-005 5.42306e-005,-4.54504e-005 9.03844e-005,-8.05712e-005l5.16482e-007 0 2.58241e-006 -3.09889e-006 2.06593e-006 -2.06593e-006 1.54945e-006 -1.54945e-006 1.03296e-006 -1.03296e-006 1.54945e-006 -2.06593e-006 0 5.16482e-007 4.13186e-006 -4.64834e-006c0.000114659,-0.00011311 0.000197813,-0.000239131 0.000248944,-0.000377032 6.09449e-005,-0.000163725 8.72855e-005,-0.000353274 7.95383e-005,-0.000568131l1.03296e-006 0 -5.16482e-007 -4.02856e-005c-3.61538e-006,-0.00123698 -0.000358955,-0.00254006 -0.00106447,-0.00390874l1.03296e-006 -5.16482e-007 -0.0145684 -0.0279773 -0.0119416 0.0112541 -0.00156752 0.0124767 5.16482e-006 1.03296e-006c-0.000253593,0.00201841 -0.000331582,0.00350382 -0.000234483,0.00445518 1.80769e-005,0.000175604 3.82197e-005,0.000316604 6.09449e-005,0.000422483 1.91098e-005,9.14174e-005 4.18351e-005,0.000169406 6.66262e-005,0.000233966l1.03296e-006 2.58241e-006c7.02416e-005,0.00017767 0.000251527,0.000354307 0.000543339,0.000528361 0.000407505,0.00024378 0.000970987,0.000448307 0.00168941,0.000612548 0.000118791,1.6011e-005 0.000268054,4.75164e-005 0.000446757,9.45163e-005 2.47912e-005,5.16482e-006 5.00988e-005,1.13626e-005 7.48899e-005,1.80769e-005l8.93514e-005 2.53076e-005 -1.03296e-006 2.58241e-006 1.4978e-005 4.13186e-006 3.82197e-005 1.13626e-005c2.27252e-005,5.16482e-006 4.54504e-005,1.13626e-005 6.76592e-005,1.80769e-005l8.26372e-006 2.58241e-006c0.00010278,3.09889e-005 0.00016011,4.85493e-005 0.000174571,5.21647e-005l0 1.03296e-006c2.27252e-005,4.13186e-006 4.54504e-005,9.29668e-006 6.86921e-005,1.44615e-005 6.40438e-005,1.54945e-005 7.54064e-005,2.11758e-005 8.36701e-005,2.22087e-005l5.16482e-007 -5.16482e-006 4.13186e-006 5.16482e-007 0.00658567 0.000827405c0.000695185,8.72855e-005 0.00118843,0.000722042 0.00110114,0.00141774l-0.00115124 0.00916291c-8.72855e-005,0.000695185 -0.000722042,0.00118843 -0.00141774,0.00110114z"/>
  <path fill="#1F1A17" d="M0.507746 0.236418c0.000997844,0.00729738 0.0024378,0.0156592 0.00649838,0.0222191 -0.00768371,-0.00340207 -0.0161256,-0.00446292 -0.0244121,-0.00306687 0.00555683,-0.00535127 0.00902036,-0.013097 0.0117918,-0.0199212 -0.00782987,0.00460186 -0.0195514,0.00623136 -0.029173,-0.00501763 -0.00645809,-0.00755045 -0.00603974,-0.0190417 0.000337779,-0.0274794 0.0105316,-0.0139352 0.0273524,-0.0194518 0.0408899,-0.0387088 0.00835358,0.0220073 0.0232872,0.0315127 0.0300448,0.0476202 0.00409209,0.00975274 0.00165533,0.0209904 -0.00646997,0.0267088 -0.0121048,0.00851938 -0.0230589,0.00404147 -0.0295077,-0.00235413z"/>
  <path fill="white" d="M0.672557 0.0452315l0.365652 0.130169c0.0183393,0.00652834 0.0275223,0.0282216 0.0204078,0.0482064l-0.189601 0.532601c-0.00711454,0.0199848 -0.0279401,0.0309951 -0.0462789,0.0244663l-0.365652 -0.130169c-0.0183387,-0.00652834 -0.0275223,-0.0282211 -0.0204078,-0.0482064l0.189602 -0.532601c0.00711454,-0.0199853 0.0279396,-0.0309951 0.0462784,-0.0244668l-5.16482e-007 5.16482e-007z"/>
  <path fill="#1F1A17" fill-rule="nonzero" d="M0.67365 0.0421269l0.365651 0.130169 8.7802e-006 3.09889e-006c0.010073,0.00358904 0.0176244,0.0113208 0.0216731,0.020884 0.00400016,0.00944698 0.00457345,0.0206918 0.00075768,0.0314584l-2.11758e-005 5.99119e-005 -0.189603 0.532601 -3.04725e-005 8.57361e-005c-0.00107635,0.00300748 -0.00243366,0.00581507 -0.0040203,0.00839542 -0.00159851,0.00259894 -0.0034563,0.0050042 -0.00552171,0.0071853 -0.0106023,0.0111984 -0.0264377,0.0159578 -0.0409044,0.0108105l-0.365651 -0.130168 -8.7802e-006 -3.09889e-006c-0.00282103,-0.00100507 -0.0054556,-0.00234431 -0.00787739,-0.00396297 -0.00241404,-0.00161349 -0.00460186,-0.00349659 -0.00654125,-0.00559712 -0.00990045,-0.0107232 -0.0135324,-0.0272827 -0.00799256,-0.0428443l0.189604 -0.532601 6.19779e-006 -1.65274e-005c0.00108048,-0.00303382 0.00244554,-0.00586414 0.00404509,-0.00846463 0.00159851,-0.00259894 0.00345578,-0.0050042 0.0055212,-0.0071853 0.0106023,-0.0111984 0.0264367,-0.0159583 0.0409049,-0.0108095zm0.363462 0.136378l-0.365651 -0.130169c-0.0119349,-0.00424703 -0.0250809,-0.000231384 -0.0339489,0.00913502 -0.0017204,0.00181647 -0.00329103,0.00385916 -0.00467107,0.00610275 -0.00137797,0.0022405 -0.00254419,0.00465196 -0.00345475,0.00720958l-5.16482e-007 0 -3.09889e-006 9.29668e-006 -0.189604 0.532601c-0.00470205,0.013209 -0.00168425,0.0271954 0.00662698,0.0361971 0.00160213,0.00173486 0.00339432,0.0032807 0.00535644,0.00459204 0.00195334,0.00130567 0.00409622,0.00239235 0.00640851,0.00321614l8.7802e-006 3.09889e-006 0.365651 0.130168c0.0119338,0.004246 0.0250804,0.000230351 0.0339484,-0.00913606 0.0017204,-0.00181647 0.00329154,-0.00385916 0.00467158,-0.00610275 0.00137746,-0.00223998 0.00254368,-0.00465196 0.00345423,-0.00720958l5.16482e-007 0 3.09889e-006 -9.29668e-006 0.189603 -0.532601 2.11758e-005 -5.99119e-005c0.00325332,-0.00917892 0.00278074,-0.0187271 -0.000602735,-0.0267181 -0.00334629,-0.00790476 -0.00955337,-0.0142838 -0.0178088,-0.0172252l-8.7802e-006 -3.09889e-006z"/>
  <path fill="#1F1A17" d="M0.639938 0.243935c-0.00059757,0.00734128 -0.000991646,0.0158168 0.00156133,0.0230966 -0.00677108,-0.00497682 -0.0147864,-0.00782987 -0.0231792,-0.00825132 0.00657895,-0.00402908 0.0116291,-0.0108477 0.0158049,-0.0169143 -0.00863713,0.0028076 -0.0204341,0.00187483 -0.0274082,-0.0111824 -0.00468088,-0.00876419 -0.00179736,-0.0198954 0.00624685,-0.026762 0.0132855,-0.0113404 0.0308996,-0.0131052 0.0482663,-0.0289958 0.0034186,0.0232897 0.0159547,0.0357881 0.0190861,0.0529725 0.00189549,0.0104056 -0.00290366,0.0208545 -0.0120697,0.0246894 -0.0136558,0.00571333 -0.0233884,-0.0010185 -0.0283084,-0.00865263z"/>
  <path fill="#1F1A17" fill-rule="nonzero" d="M0.627442 0.14709l0.00309734 -0.00870014c0.000234999,-0.000660064 0.000961174,-0.00100507 0.00162124,-0.000770075l0.00191098 0.000680207 0.000190582 6.81757e-005 0.000907459 0.000200912m-0.00653195 0.00894651l0.000938448 -0.00263561 1.34285e-005 -3.71867e-005 0.00214547 -0.00602683 0.00191047 0.000680207 0.000260824 9.24503e-005 0.000297494 6.61097e-005 0.00034501 7.64394e-005 0.000354823 7.85053e-005c0.00124317,0.000173538 0.00224463,-2.8923e-005 0.00300541,-0.000608933 0.000760778,-0.000579493 0.0020995,-0.00209485 0.00401565,-0.00454556l0.0473082 -0.0622501 0.0115501 0.00411223 -0.00319083 0.0779547c-3.92527e-005,0.00249254 7.48899e-005,0.00427906 0.000342944,0.00535902 0.000268054,0.00107996 0.000852196,0.00200447 0.00175294,0.00277248 0.000609966,0.00048601 0.000972536,0.000748899 0.00108874,0.000790218l0.00199724 0.000711196 -0.00309734 0.00870014 -0.0271819 -0.00967681 0.00309683 -0.00870014 0.00651336 0.00231901c0.000868207,0.000308856 0.00149625,0.000286131 0.00188361,-6.81757e-005 0.000386845,-0.000354307 0.000720493,-0.00110837 0.00100094,-0.00226219l9.70987e-005 -0.0043963 0.000716361 -0.0143814 -0.0269216 -0.00958436 -0.00870634 0.0115372c-0.00111509,0.00148334 -0.00180097,0.00240268 -0.00205818,0.00275853 -0.00165791,0.00227459 -0.00156029,0.0037414 0.000292329,0.00440095l0.00660013 0.00234999 -0.00309683 0.00869963 -0.0232748 -0.00828541zm0.0068532 -0.00891758c9.45163e-005,5.68131e-006 0.000214857,5.68131e-006 0.000359988,1.03296e-006 0.000530427,-1.80769e-005 0.000960657,-0.000152362 0.00128966,-0.000403373 0.000313505,-0.000238615 0.000778339,-0.000706548 0.00139399,-0.0014038 0.000666779,-0.000754581 0.00146113,-0.00172144 0.00238305,-0.00290056l0.0473082 -0.0622495c0.000341395,-0.000450373 0.000925536,-0.000606867 0.00143066,-0.000427131l5.16482e-007 -5.16482e-007 0.0115501 0.00411172c0.000536109,0.000191098 0.000863558,0.000706548 0.0008398,0.00124679l1.03296e-006 0 -0.00318979 0.0779217 1.03296e-006 0c-4.13186e-006,0.000274769 -6.19779e-006,0.000605317 -5.68131e-006,0.000984932 5.16482e-007,0.000332615 4.13186e-006,0.000630625 9.81316e-006,0.00089558 3.15054e-005,0.00141878 0.000132219,0.00246982 0.000301109,0.00315209l5.16482e-007 1.54945e-006c2.84065e-005,0.000112593 6.14614e-005,0.000225703 0.000100714,0.000338812 3.92527e-005,0.000113626 8.05712e-005,0.000218988 0.000123439,0.000315054 0.000241714,0.000539724 0.000616163,0.00102522 0.00112128,0.00145596l7.23075e-006 6.71427e-006c0.000132736,0.000105362 0.000251527,0.000198329 0.000356373,0.000278384 0.000124472,9.60657e-005 0.000220538,0.00016889 0.000287681,0.000217439 7.64394e-005,5.57801e-005 -8.7802e-006,3.97691e-005 4.08021e-005,5.73295e-005l-1.54945e-006 4.64834e-006 0.00199724 0.000711196c0.000657998,0.000233966 0.00100146,0.000957042 0.000766976,0.00161504l4.64834e-006 1.54945e-006 -0.00309683 0.00870014c-0.000234999,0.000660581 -0.000961174,0.00100507 -0.00162175,0.000770075 -3.61538e-005,-1.29121e-005 -7.07581e-005,-2.68571e-005 -0.000105362,-4.2868e-005l-0.027075 -0.00963859c-0.000657998,-0.000233966 -0.00100146,-0.000957042 -0.000767493,-0.00161504l-4.64834e-006 -1.54945e-006 0.00309734 -0.00870014c0.000234999,-0.000660581 0.000961174,-0.00100507 0.00162124,-0.000770075l0.00651336 0.00231849c0.000285098,0.000101747 0.000499955,0.000150813 0.000643537,0.000147714 5.47471e-005,-7.23075e-005 0.00012034,-0.000193681 0.00019523,-0.000363604 0.000125505,-0.000284065 0.00024378,-0.000642504 0.000354823,-0.00107583l9.45163e-005 -0.00426924c5.16482e-007,-2.53076e-005 2.06593e-006,-5.00988e-005 4.13186e-006,-7.48899e-005l0.000667295 -0.0133965 -0.0251589 -0.00895632 -0.00814286 0.0107903c-0.000711196,0.000946196 -0.0011657,0.00155151 -0.00134905,0.00179736 -0.000361538,0.000484977 -0.000593955,0.000797965 -0.000696218,0.000939481l-2.58241e-006 4.13186e-006 1.03296e-006 5.16482e-007c-0.000650768,0.000893514 -0.000962207,0.00155358 -0.0009338,0.00197968 1.13626e-005,0.000176637 0.000220538,0.000337263 0.00062701,0.000481878l-1.54945e-006 4.64834e-006 0.00660013 0.00234999c0.000657998,0.000233966 0.00100146,0.000957042 0.000767493,0.00161504l4.64834e-006 1.54945e-006 -0.00309734 0.00870014c-0.000234999,0.000660064 -0.000961174,0.00100507 -0.00162124,0.000770075l-0.0232748 -0.00828541c-0.000660581,-0.000235516 -0.00100507,-0.000961174 -0.000770075,-0.00162175m0.039356 -0.0293667l0.0182261 0.00648805 0.00152207 -0.0330017 -0.0197482 0.0265136zm-0.00204062 0.000620812l0.0214505 0.00763619 0.00179168 -0.0388405 -0.0232422 0.0312043z"/>
  <path fill="#1F1A17" d="M0.853937 0.58152c0.000597054,-0.00734076 0.000991646,-0.0158168 -0.00156133,-0.0230966 0.00677057,0.00497682 0.0147864,0.00783039 0.0231787,0.00825132 -0.00657895,0.00402908 -0.0116291,0.0108477 -0.0158049,0.0169148 0.00863713,-0.0028076 0.0204346,-0.00187483 0.0274082,0.0111818 0.00468088,0.00876419 0.00179787,0.0198954 -0.00624685,0.026762 -0.0132855,0.0113404 -0.0308991,0.0131052 -0.0482658,0.0289958 -0.00341911,-0.0232897 -0.0159552,-0.0357881 -0.0190861,-0.0529725 -0.00189601,-0.0104051 0.00290315,-0.0208545 0.0120692,-0.0246894 0.0136558,-0.00571281 0.0233884,0.00101902 0.0283089,0.00865263z"/>
  <path fill="#1F1A17" fill-rule="nonzero" d="M0.866431 0.678365l-0.00309683 0.00870014c-0.000234999,0.000660581 -0.000961174,0.00100507 -0.00162175,0.000770075l-0.00191047 -0.000680207 -0.000191098 -6.76592e-005 -0.000906943 -0.000200912m0.00653144 -0.00894702l-0.000938448 0.00263561 -1.29121e-005 3.71867e-005 -0.00214598 0.00602735 -0.00191047 -0.000680207 -0.000260307 -9.29668e-005 -0.00029801 -6.55933e-005 -0.000344494 -7.64394e-005 -0.00035534 -7.90218e-005c-0.00124266,-0.000173538 -0.00224463,2.94395e-005 -0.00300541,0.000608933 -0.000760778,0.000579493 -0.0020995,0.00209485 -0.00401565,0.00454608l-0.0473077 0.0622495 -0.0115506 -0.00411172 0.00319083 -0.0779553c3.92527e-005,-0.00249254 -7.48899e-005,-0.00427906 -0.000342944,-0.00535902 -0.000267538,-0.00107996 -0.000852196,-0.00200395 -0.00175242,-0.00277248 -0.000609966,-0.000485493 -0.000973053,-0.000748899 -0.00108874,-0.000790218l-0.00199724 -0.000711196 0.00309683 -0.00869963 0.0271825 0.0096763 -0.00309734 0.00870014 -0.00651336 -0.00231849c-0.000868207,-0.000309373 -0.00149573,-0.000286648 -0.00188309,6.76592e-005 -0.000387362,0.000354823 -0.000721009,0.00110889 -0.00100094,0.00226219l-9.76152e-005 0.00439681 -0.000716361 0.0143814 0.0269222 0.00958385 0.00870583 -0.0115372c0.00111509,-0.00148282 0.00180149,-0.00240268 0.00205818,-0.00275853 0.00165791,-0.00227459 0.00156029,-0.0037414 -0.000292329,-0.00440095l-0.00660013 -0.00234948 0.00309734 -0.00870014 0.0232742 0.00828541zm-0.00685269 0.00891758c-9.45163e-005,-5.68131e-006 -0.000215373,-5.68131e-006 -0.000359988,-5.16482e-007 -0.000530944,1.80769e-005 -0.000961174,0.000152362 -0.00129017,0.000402856 -0.000313505,0.000238615 -0.000778339,0.000707064 -0.00139399,0.0014038 -0.000666262,0.000754581 -0.00146113,0.00172144 -0.00238305,0.00290056l-0.0473077 0.0622501c-0.000341395,0.000449856 -0.000926053,0.000606867 -0.00143117,0.000426614l0 5.16482e-007 -0.0115506 -0.00411172c-0.000536109,-0.000191098 -0.000863042,-0.000706548 -0.000839284,-0.00124627l-1.03296e-006 -5.16482e-007 0.00318928 -0.0779217 -1.03296e-006 0c4.64834e-006,-0.000274252 6.19779e-006,-0.000604801 5.68131e-006,-0.000984932 -5.16482e-007,-0.000332098 -3.61538e-006,-0.000630108 -9.81316e-006,-0.000895064 -3.15054e-005,-0.00141929 -0.000131703,-0.00247033 -0.000301109,-0.00315209l-5.16482e-007 -2.06593e-006c-2.789e-005,-0.000112593 -6.14614e-005,-0.000225703 -0.000100198,-0.000338812 -3.92527e-005,-0.000113626 -8.05712e-005,-0.000218988 -0.000123956,-0.000315054 -0.000241714,-0.000539208 -0.000615647,-0.0010247 -0.00112128,-0.00145596l-7.23075e-006 -6.19779e-006c-0.000132736,-0.000105362 -0.000251527,-0.000198329 -0.000355856,-0.0002789 -0.000124472,-9.60657e-005 -0.000220538,-0.000168373 -0.000287681,-0.000216923 -7.69559e-005,-5.62966e-005 8.26372e-006,-4.02856e-005 -4.08021e-005,-5.7846e-005l1.54945e-006 -4.64834e-006 -0.00199724 -0.00071068c-0.000657998,-0.000234483 -0.00100146,-0.000957558 -0.000767493,-0.00161556l-4.64834e-006 -1.54945e-006 0.00309734 -0.00870014c0.000234999,-0.000660064 0.000961174,-0.00100507 0.00162124,-0.000770075 3.61538e-005,1.29121e-005 7.12746e-005,2.73736e-005 0.000105362,4.2868e-005l0.0270756 0.00963859c0.000657998,0.000234483 0.00100146,0.000957558 0.000766976,0.00161504l4.64834e-006 2.06593e-006 -0.00309683 0.00869963c-0.000234999,0.000660581 -0.000961174,0.00100559 -0.00162175,0.000770075l-0.00651336 -0.00231849c-0.000284582,-0.000101231 -0.000499438,-0.000150813 -0.00064302,-0.000147714 -5.52636e-005,7.23075e-005 -0.00012034,0.000194197 -0.000195747,0.00036412 -0.000125505,0.000283549 -0.00024378,0.000641987 -0.000354307,0.00107583l-9.45163e-005 0.00426924c-1.03296e-006,2.53076e-005 -2.58241e-006,4.95823e-005 -4.64834e-006,7.43735e-005l-0.000667295 0.0133965 0.0251594 0.00895632 0.00814234 -0.0107903c0.000711196,-0.000945679 0.0011657,-0.001551 0.00134957,-0.00179736 0.000361538,-0.00048446 0.000593438,-0.000797449 0.000695702,-0.000939481l3.09889e-006 -4.13186e-006 -1.54945e-006 -5.16482e-007c0.000651284,-0.000892998 0.000962723,-0.00155306 0.000934316,-0.00197968 -1.18791e-005,-0.00017612 -0.000221054,-0.000337263 -0.000627526,-0.000481878l1.54945e-006 -4.64834e-006 -0.00660013 -0.00234948c-0.000657998,-0.000234483 -0.00100146,-0.000957558 -0.000766976,-0.00161504l-4.64834e-006 -2.06593e-006 0.00309683 -0.00869963c0.000234999,-0.000660581 0.000961174,-0.00100559 0.00162175,-0.000770075l0.0232742 0.00828541c0.000660581,0.000234999 0.00100559,0.000961174 0.000770075,0.00162124m-0.0393554 0.0293672l-0.0182256 -0.00648857 -0.00152207 0.0330017 0.0197477 -0.0265131zm0.00204114 -0.000621328l-0.0214511 -0.00763619 -0.00179116 0.0388405 0.0232422 -0.0312043z"/>
  <path fill="#1F1A17" d="M0.733812 0.478455c-0.0017297,0.021262 -0.00287216,0.0458099 0.0045218,0.0668943 -0.0196103,-0.014414 -0.0428252,-0.0226782 -0.0671324,-0.0238982 0.0190541,-0.0116694 0.0336803,-0.0314171 0.0457748,-0.0489889 -0.0250153,0.0081315 -0.0591832,0.00542978 -0.0793813,-0.0323865 -0.0135566,-0.025383 -0.00520614,-0.0576219 0.0180929,-0.0775095 0.0384784,-0.0328447 0.089493,-0.0379568 0.139791,-0.08398 0.00990148,0.0674541 0.0462102,0.103652 0.0552781,0.153423 0.00549072,0.0301367 -0.00840885,0.0604005 -0.0349555,0.0715065 -0.0395507,0.0165471 -0.0677398,-0.00295015 -0.0819895,-0.0250602l5.16482e-007 0z"/>
 </g>
</svg>
